# xmcd CD database file
#
# Track frame offsets:
#	150
#	15943
#	32101
#	48770
#	67640
#	84180
#	99212
#	115212
#	132281
#	149234
#	164687
#	181178
#	197609
#
# Disc length: 2842 seconds
#
# Revision: 0
# Processed by: cddbd v1.5.2PL0 Copyright (c) Steve Scherf et al.
# Submitted via: CDex 1.70beta2
#
DISCID=9f0b180d
DTITLE=Florida Georgia Line - Here's To The Good Times
DYEAR=1900
DGENRE=Country
TTITLE0=Cruise
TTITLE1=Round Here
TTITLE2=Get Your Shine On
TTITLE3=Here's To The Good Times
TTITLE4=It'z Just What We Do
TTITLE5=Stay
TTITLE6=Hell Raisin' Heat Of The Summer
TTITLE7=Tell Me How You Like It
TTITLE8=Tip It Back
TTITLE9=Dayum, Baby
TTITLE10=Party People
TTITLE11=What Are You Drinkin' About
TTITLE12=Country In My Soul
EXTD=
EXTT0=
EXTT1=
EXTT2=
EXTT3=
EXTT4=
EXTT5=
EXTT6=
EXTT7=
EXTT8=
EXTT9=
EXTT10=
EXTT11=
EXTT12=
PLAYORDER=
